Coordinates
version=1
nRows=5
nColumns=40
inDegrees=yes

Units are S.I. units (second, meters, Newtons, ...)
Angles are in degrees.

endheader
time	pelvis_tilt	pelvis_list	pelvis_rotation	pelvis_tx	pelvis_ty	pelvis_tz	hip_flexion_r	hip_adduction_r	hip_rotation_r	knee_angle_r	knee_angle_r_beta	ankle_angle_r	subtalar_angle_r	mtp_angle_r	hip_flexion_l	hip_adduction_l	hip_rotation_l	knee_angle_l	knee_angle_l_beta	ankle_angle_l	subtalar_angle_l	mtp_angle_l	lumbar_extension	lumbar_bending	lumbar_rotation	arm_flex_r	arm_add_r	arm_rot_r	elbow_flex_r	pro_sup_r	wrist_flex_r	wrist_dev_r	arm_flex_l	arm_add_l	arm_rot_l	elbow_flex_l	pro_sup_l	wrist_flex_l	wrist_dev_l
     10.56250000	     -4.01908944	     -4.52827591	      0.84742365	      0.74096702	      0.92322046	      0.48082067	     21.11872189	      2.53059684	     -9.32283964	     21.22858620	     21.22858620	      5.80664029	     -5.07378039	     -2.69898013	      7.98158615	     -8.01981549	     -2.31962370	     40.97226810	     40.97226810	     13.22091156	    -10.84646242	    -11.12091903	    -10.13627325	      8.97611373	     -0.27917040	     11.30644159	    -15.75410127	    -12.67875597	     48.21974146	     45.17135760	      0.00000000	      0.00000000	     -5.79830900	    -13.81975864	      3.50084111	     68.31667266	     46.97103044	      0.00000000	      0.00000000
     10.57600000	     -4.05017282	     -4.56724672	      1.20893845	      0.74148972	      0.92386568	      0.48322376	     20.53622295	      2.58626267	    -10.00566710	     21.07462288	     21.07462288	      6.27651287	     -4.42398825	     -2.82217982	      9.84972725	     -8.44739173	     -1.71129039	     44.62424202	     44.62424202	     11.18316700	    -11.75658750	    -11.61056967	     -9.98673469	      8.90312417	     -0.42491775	     12.03126164	    -15.93210502	    -12.42410745	     49.61844053	     45.11880341	      0.00000000	      0.00000000	     -5.97555306	    -13.77071823	      3.48432598	     67.59028246	     46.96333239	      0.00000000	      0.00000000
     10.58950000	     -3.95627154	     -4.65371951	      1.54879708	      0.74183815	      0.92461119	      0.48561392	     19.81811536	      2.72181421	    -10.61387687	     20.90478985	     20.90478985	      6.74672065	     -3.83046108	     -2.93719898	     11.61214351	     -8.92486602	     -1.17792777	     48.14249853	     48.14249853	      9.26272672	    -12.58286139	    -11.52836580	    -10.05533941	      8.91099168	     -0.27999859	     12.88390162	    -16.19342142	    -12.22636607	     50.79442064	     45.07641869	      0.00000000	      0.00000000	     -5.97035459	    -13.73802181	      3.39994067	     67.08445472	     46.96394146	      0.00000000	      0.00000000
     10.60300000	     -3.95149706	     -4.73202434	      1.88098279	      0.74193995	      0.92519017	      0.48790563	     19.18691286	      2.82401482	    -11.33389932	     20.68998949	     20.68998949	      7.15304141	     -3.02714406	     -3.02594386	     13.52342647	     -9.33742062	     -0.63708206	     51.50954229	     51.50954229	      7.51718809	    -13.47327560	    -10.92172803	    -10.00637397	      8.88308752	     -0.20256352	     13.63542170	    -16.42627107	    -11.96343088	     52.16353188	     45.02442476	      0.00000000	      0.00000000	     -6.04821990	    -13.67173059	      3.27507130	     66.43987312	     46.96490079	      0.00000000	      0.00000000
     10.61650000	     -3.93836100	     -4.66527896	      2.16857246	      0.74186698	      0.92583931	      0.48989132	     18.59625662	      2.65081714	    -12.42132367	     20.63371747	     20.63371747	      7.93354201	     -1.31287453	     -2.56703265	     15.49063788	     -9.50739757	     -0.16607600	     54.84498586	     54.84498586	      7.48967104	    -13.51821193	     -6.32289021	    -10.09421677	      8.77368791	      0.42875569	     12.87301868	    -17.51643950	    -10.28573851	     56.77377661	     44.83124738	      0.00000000	      0.00000000	     -5.46989433	    -13.08454387	      2.47301296	     64.60674130	     47.01262679	      0.00000000	      0.00000000
